<svg width="143" height="70" viewBox="0 0 323 116" fill="none" xmlns="http://www.w3.org/2000/svg">
    <g filter="url(#filter0_d_1661_21074)">
        <path
            d="M159.84 43.1125C159.84 43.0623 160.737 42.6506 160.846 42.6506C160.891 42.6506 160.993 42.6143 161.073 42.5699C161.229 42.4832 162.258 42.067 162.805 41.8696C162.989 41.8033 163.459 41.6302 163.849 41.4849C165.5 40.8711 167.019 40.354 168.903 39.7648C171.577 38.9287 171.98 38.8081 172.102 38.8081C172.159 38.8081 172.27 38.7751 172.35 38.7347C172.43 38.6944 172.74 38.5984 173.038 38.5216C173.337 38.4447 173.971 38.2822 174.447 38.1603L175.312 37.9387L175.257 37.2249C174.977 33.5913 174.895 29.3022 175.037 25.6934C175.226 20.8708 175.354 21.9599 175.438 29.1183C175.474 32.0816 175.481 35.258 175.455 36.1769C175.422 37.313 175.436 37.8772 175.496 37.9402C175.546 37.9912 175.868 38.0978 176.212 38.1772C176.557 38.2566 177.064 38.3912 177.34 38.4764C177.616 38.5617 178.123 38.7115 178.468 38.8094C179.732 39.169 181.483 39.7162 181.934 39.8929C182.026 39.9289 182.665 40.1478 183.354 40.3795C185.06 40.9528 185.605 41.1589 185.638 41.2429C185.653 41.2821 185.746 41.3142 185.845 41.3142C186.035 41.3142 188.977 42.4515 189.114 42.5775C189.158 42.6177 189.241 42.6507 189.3 42.6507C189.446 42.6507 190.354 43.0717 190.307 43.1182C190.268 43.1576 189.667 43.009 188.951 42.7832C188.721 42.7107 188.101 42.5221 187.573 42.364C187.045 42.2059 185.503 41.6962 184.148 41.2312C182.793 40.7663 181.496 40.3282 181.266 40.2577C181.036 40.1871 180.813 40.0954 180.769 40.0536C180.725 40.0118 180.634 39.9776 180.566 39.9776C180.452 39.9776 177.747 39.0127 177.173 38.7673C177.035 38.7083 176.697 38.5745 176.421 38.4698C176.146 38.3652 175.882 38.2535 175.836 38.2215C175.59 38.0501 175.209 38.075 174.658 38.2985C174.341 38.4268 173.857 38.6116 173.581 38.7091C173.305 38.8067 172.666 39.0413 172.161 39.2305C170.869 39.7142 170.041 39.9776 169.81 39.9776C169.702 39.9776 169.613 40.0078 169.613 40.0447C169.613 40.0816 169.341 40.1965 169.008 40.3001C168.675 40.4037 168.327 40.5198 168.235 40.5581C167.756 40.7576 165.954 41.3159 165.792 41.3151C165.688 41.3146 165.604 41.345 165.604 41.3826C165.604 41.4201 165.256 41.5562 164.831 41.6848C164.406 41.8134 163.852 41.9863 163.599 42.0689C162.622 42.3885 161.775 42.6427 161.093 42.8211C160.702 42.9233 160.347 43.0396 160.303 43.0794C160.221 43.1545 159.84 43.1817 159.84 43.1125Z"
            fill="#C4BB29" />
        <path
            d="M105.5 80.1571C105.5 74.0696 105.51 71.5793 105.522 74.623C105.535 77.6667 105.535 82.6474 105.522 85.6911C105.51 88.7349 105.5 86.2446 105.5 80.1571ZM109.927 80.1571C109.927 76.5046 109.937 75.0104 109.95 76.8367C109.962 78.6629 109.962 81.6513 109.95 83.4775C109.937 85.3038 109.927 83.8096 109.927 80.1571ZM131.454 82.35C132.358 82.3364 133.862 82.3364 134.795 82.3499C135.729 82.3633 134.989 82.3744 133.151 82.3744C131.313 82.3744 130.55 82.3635 131.454 82.35ZM178.495 82.3499C179.727 82.3369 181.719 82.3369 182.922 82.3499C184.125 82.3629 183.117 82.3736 180.682 82.3736C178.247 82.3736 177.262 82.3629 178.495 82.3499ZM115.129 77.9227C116.197 77.9094 117.945 77.9094 119.013 77.9227C120.081 77.9359 119.207 77.9467 117.071 77.9467C114.935 77.9467 114.061 77.9359 115.129 77.9227ZM131.454 77.9227C132.358 77.9092 133.862 77.9092 134.795 77.9227C135.729 77.9361 134.989 77.9471 133.151 77.9471C131.313 77.9472 130.55 77.9362 131.454 77.9227ZM178.495 77.9226C179.727 77.9096 181.719 77.9096 182.922 77.9227C184.125 77.9357 183.117 77.9463 180.682 77.9463C178.247 77.9463 177.262 77.9357 178.495 77.9226ZM16.9532 59.42C16.9314 59.3625 16.9232 50.106 16.9352 38.8499L16.9568 18.3843L16.9775 38.9124L16.9982 59.4406L40.6173 59.4618L64.2363 59.483L40.6146 59.5037C21.7789 59.5203 16.9849 59.5032 16.9532 59.42ZM62.0641 53.322L55.8828 47.1197L62.0643 53.2801L68.2458 59.4404L85.7042 59.4618L103.163 59.4831L85.704 59.5038L68.2454 59.5245L62.0641 53.322ZM105.209 59.4616C105.209 59.4271 109.823 54.7941 115.463 49.1661L125.717 38.9335L115.485 49.1866L105.252 59.4397L111.391 59.4618L117.53 59.4838L111.37 59.5041C107.982 59.5152 105.209 59.4961 105.209 59.4616ZM149.246 59.4618C150.931 59.4492 153.713 59.4491 155.427 59.4618C157.142 59.4744 155.764 59.4848 152.364 59.4848C148.964 59.4848 147.561 59.4744 149.246 59.4618ZM204.181 59.4618C205.62 59.449 207.951 59.449 209.36 59.4618C210.77 59.4746 209.592 59.4852 206.744 59.4851C203.895 59.4851 202.742 59.4746 204.181 59.4618ZM222.114 59.4618L228.295 59.44L238.57 49.1868L248.845 38.9335L238.57 49.2289L228.296 59.5244L222.114 59.5041L215.933 59.4838L222.114 59.4618ZM255.924 59.462L261.082 59.4395L261.103 45.0724L261.125 30.7054V45.094V59.4826L255.946 59.4835L250.767 59.4845L255.924 59.462ZM268.245 59.4617C269.957 59.4491 272.757 59.4491 274.468 59.4617C276.18 59.4743 274.78 59.4847 271.357 59.4847C267.934 59.4847 266.534 59.4743 268.245 59.4617ZM184.566 56.8373C184.405 56.7587 183.728 56.4306 183.062 56.1081C179.828 54.5425 177.468 52.37 175.974 49.5839C174.81 47.4124 174.161 44.5224 174.222 41.7869L174.249 40.5864L173.575 41.89C171.499 45.8992 169.216 48.6342 167.007 49.7577C165.828 50.357 164.069 50.5522 162.847 50.219C161.079 49.7367 159.646 48.3333 159.129 46.5767C158.873 45.7078 158.906 44.4543 159.208 43.5835L159.314 43.2772L158.93 43.0554C158.318 42.7028 157.875 42.2738 157.424 41.6004C156.84 40.7276 156.566 39.8417 156.558 38.8082C156.551 37.8431 156.669 37.3114 157.093 36.3948C158.204 33.9943 160.585 32.7679 163.441 33.1253C166.206 33.4714 169.849 34.966 172.161 36.7024C172.662 37.0783 172.661 37.0777 171.909 36.2937C170.496 34.8207 169.524 33.5531 168.24 31.5042C166.911 29.3847 166.46 27.8376 166.675 26.1342C166.928 24.1343 167.918 22.6104 169.498 21.7898C170.364 21.34 171.005 21.1824 171.964 21.1836C173.088 21.1846 173.873 21.4251 174.831 22.0613L175.289 22.3656L175.688 22.0334C177.28 20.7075 179.634 20.5709 181.533 21.6941C182.188 22.0819 183.138 23.0356 183.519 23.6886C185.017 26.2552 184.367 29.215 181.543 32.6909C180.812 33.5909 178.757 35.6779 177.758 36.5352C176.519 37.5979 176.508 37.618 177.507 36.9885C180.478 35.1167 183.715 33.7106 186.132 33.2422C187.114 33.0519 188.76 33.0516 189.534 33.2417C190.755 33.5415 191.774 34.1972 192.578 35.1994C194.32 37.3708 194.268 40.3545 192.455 42.2314C192.166 42.5309 191.739 42.8888 191.507 43.0266C191.217 43.1984 191.098 43.3166 191.13 43.4025C191.423 44.1896 191.515 45.5941 191.326 46.3705C190.896 48.13 189.547 49.5651 187.782 50.1425C187.224 50.3248 186.954 50.3619 186.153 50.366C184.701 50.3739 183.611 50.013 182.31 49.0945C180.472 47.7963 178.261 44.82 176.547 41.3345C176.294 40.8208 176.065 40.3994 176.037 40.3979C175.931 40.392 175.88 42.3167 175.964 43.1937C176.294 46.6726 177.24 49.0056 179.241 51.2754C180.824 53.0708 183.908 54.9248 186.485 55.6303L187.131 55.8072L186.019 56.3019C185.407 56.574 184.896 56.8379 184.882 56.8884C184.867 56.9487 184.758 56.9312 184.566 56.8373ZM160.304 43.0794C160.347 43.0396 160.702 42.9234 161.093 42.8212C161.775 42.6427 162.622 42.3885 163.599 42.0689C163.852 41.9862 164.406 41.8135 164.831 41.6848C165.256 41.5562 165.604 41.4202 165.604 41.3826C165.604 41.3449 165.688 41.3146 165.792 41.3151C165.954 41.3159 167.756 40.7576 168.235 40.5581C168.327 40.5199 168.675 40.4038 169.008 40.3002C169.341 40.1966 169.613 40.0816 169.613 40.0447C169.613 40.0078 169.702 39.9776 169.811 39.9776C170.041 39.9776 170.869 39.7142 172.161 39.2306C172.666 39.0413 173.306 38.8067 173.581 38.7091C173.857 38.6116 174.341 38.4268 174.658 38.2985C175.209 38.075 175.59 38.0501 175.837 38.2215C175.883 38.2535 176.146 38.3652 176.421 38.4699C176.697 38.5745 177.035 38.7083 177.173 38.7673C177.747 39.0127 180.452 39.9776 180.566 39.9776C180.634 39.9776 180.726 40.0118 180.769 40.0536C180.813 40.0953 181.037 40.1872 181.266 40.2577C181.496 40.3282 182.793 40.7663 184.148 41.2313C185.503 41.6962 187.045 42.206 187.573 42.364C188.101 42.5221 188.722 42.7108 188.951 42.7833C189.667 43.0091 190.268 43.1576 190.308 43.1182C190.354 43.0716 189.447 42.6507 189.3 42.6507C189.241 42.6507 189.158 42.6177 189.114 42.5775C188.978 42.4515 186.035 41.3141 185.846 41.3141C185.747 41.3141 185.653 41.2821 185.638 41.2429C185.605 41.1588 185.06 40.9529 183.355 40.3795C182.665 40.1478 182.026 39.9289 181.934 39.8929C181.483 39.7162 179.732 39.169 178.468 38.8095C178.123 38.7115 177.616 38.5617 177.34 38.4765C177.064 38.3912 176.557 38.2566 176.212 38.1772C175.868 38.0979 175.546 37.9912 175.496 37.9402C175.436 37.8772 175.422 37.313 175.455 36.1769C175.513 34.1318 175.399 23.9233 175.31 23.2292C175.255 22.7944 175.239 22.7612 175.19 22.9786C175.159 23.1164 175.09 24.3381 175.037 25.6935C174.895 29.3022 174.977 33.5913 175.257 37.2249L175.313 37.9387L174.447 38.1603C173.971 38.2822 173.337 38.4448 173.038 38.5216C172.74 38.5984 172.43 38.6943 172.35 38.7347C172.27 38.7751 172.159 38.8081 172.102 38.8081C171.75 38.8081 166.25 40.5921 163.85 41.4849C163.459 41.6302 162.989 41.8033 162.805 41.8697C162.258 42.0671 161.229 42.4832 161.073 42.5699C160.993 42.6143 160.891 42.6506 160.846 42.6506C160.737 42.6506 159.84 43.0623 159.84 43.1125C159.84 43.1818 160.221 43.1546 160.304 43.0794ZM172.955 37.273C172.955 37.2557 172.889 37.1898 172.808 37.1268C172.676 37.0229 172.673 37.0259 172.777 37.1584C172.886 37.2975 172.955 37.3418 172.955 37.273ZM27.2301 34.8403C27.2301 25.7895 27.24 22.0745 27.2519 26.5848C27.2638 31.095 27.2638 38.5002 27.2519 43.0408C27.2399 47.5814 27.2301 43.8911 27.2301 34.8403ZM230.258 45.1149C233.635 41.7381 236.417 38.9752 236.439 38.9752C236.462 38.9752 233.719 41.7381 230.342 45.1149C226.965 48.4917 224.184 51.2546 224.161 51.2546C224.138 51.2546 226.882 48.4917 230.258 45.1149ZM279.543 32.8358L273.404 26.6964L261.083 26.675L248.761 26.6536L261.082 26.6329L273.404 26.6123L279.585 32.7938C282.984 36.1936 285.747 38.9752 285.724 38.9752C285.701 38.9752 282.92 36.2125 279.543 32.8358ZM287.771 28.6797L277.496 18.3843L287.792 28.6587C293.454 34.3097 298.087 38.9426 298.087 38.9542C298.087 38.9657 298.078 38.9752 298.066 38.9752C298.055 38.9752 293.422 34.3422 287.771 28.6797ZM138.998 25.6099C142.949 21.6588 146.201 18.426 146.224 18.426C146.247 18.426 143.033 21.6588 139.082 25.6099C135.131 29.561 131.88 32.7937 131.857 32.7937C131.834 32.7937 135.047 29.561 138.998 25.6099ZM123.712 24.6701L117.447 18.3843L123.733 24.6491C127.19 28.0947 130.019 30.9233 130.019 30.9349C130.019 30.9466 130.009 30.9561 129.997 30.9561C129.986 30.9561 127.157 28.1274 123.712 24.6701ZM198.848 25.9649L198.14 25.234L198.851 25.9229L199.563 26.6118L211.883 26.6332L224.202 26.6546L211.879 26.6752L199.556 26.6958L198.848 25.9649ZM246.295 24.1272L245.336 23.1457L246.318 24.1049C247.229 24.996 247.337 25.1087 247.277 25.1087C247.265 25.1087 246.823 24.667 246.295 24.1272ZM195.298 22.3312L194.381 21.3915L195.321 22.3089C196.194 23.1611 196.298 23.271 196.238 23.271C196.226 23.271 195.803 22.8481 195.298 22.3312ZM242.413 20.1803C241.863 19.6289 241.432 19.1778 241.455 19.1778C241.478 19.1778 241.946 19.6289 242.496 20.1803C243.046 20.7316 243.477 21.1826 243.454 21.1826C243.431 21.1826 242.962 20.7316 242.413 20.1803ZM191.956 18.9064L191.457 18.3843L191.979 18.8829C192.266 19.1571 192.501 19.392 192.501 19.4049C192.501 19.4667 192.419 19.3913 191.956 18.9064Z"
            fill="#6EBB42" />
        <path
            d="M105.542 80.1574V69.131H113.227H120.912V71.3447V73.5583H115.399H109.886V80.1574V86.7565H113.186H116.485V84.5847V82.4128H114.856H113.227V80.1992V77.9855H117.07H120.912V84.5847V91.1838H113.227H105.542V80.1574ZM125.423 80.1574V69.131H133.15H140.877V80.1574V91.1838H138.663H136.45V86.7565V82.3293H133.15H129.85V86.7565V91.1838H127.637H125.423V80.1574ZM136.45 75.7719V73.5583H133.15H129.85V75.7719V77.9855H133.15H136.45V75.7719ZM145.304 80.1563V69.1288L148.081 69.1508L150.858 69.1728L152.088 72.5976C152.765 74.4813 153.618 76.8495 153.983 77.8602C154.348 78.871 154.985 80.6377 155.398 81.7863C156.324 84.3586 156.327 84.3657 156.373 84.3198C156.41 84.2828 161.844 69.2306 161.844 69.165C161.844 69.1463 163.084 69.131 164.6 69.131H167.357V80.1574V91.1838H165.144H162.931L162.909 85.2127L162.888 79.2417L161.031 84.3565C160.009 87.1697 159.036 89.8572 158.867 90.3289L158.562 91.1865L156.353 91.1642L154.145 91.1421L151.959 85.1276L149.773 79.1133L149.752 85.1485L149.73 91.1838H147.517H145.304L145.304 80.1563ZM171.868 80.1573V69.1309H178.467H185.066V71.3445V73.5581H180.68H176.295V75.7718V77.9854H180.68H185.066V80.1573V82.3291H180.68H176.295V84.5428V86.7564H180.68H185.066V88.97V91.1837H178.467H171.868V80.1573ZM189.577 88.9707V86.7577L194.511 86.7362L199.444 86.7147L194.511 80.1368L189.577 73.5589V71.3449V69.131H197.304H205.03V71.3446V73.5582H200.06H195.09L200.06 80.1853L205.03 86.8122V88.998V91.1838H197.304H189.577V88.9707ZM167.246 57.9953L159.409 54.6343L158.548 52.4224C158.075 51.2059 156.648 47.5356 155.377 44.2662L153.065 38.3218L156.113 30.9131C157.789 26.8383 159.173 23.4919 159.188 23.4766C159.203 23.4613 162.757 21.8524 167.085 19.9012L174.954 16.3535L182.955 19.6777L190.955 23.0018L194.065 30.6336C195.776 34.8311 197.176 38.3236 197.177 38.3948C197.178 38.4659 196.836 39.3493 196.417 40.3578C195.84 41.7489 190.9 53.7161 190.691 54.2307C190.67 54.2824 189.894 54.6684 188.966 55.0885L187.28 55.8522L186.554 55.6513C183.879 54.9101 180.842 53.0933 179.24 51.2756C177.239 49.0058 176.293 46.6727 175.962 43.1938C175.879 42.3169 175.93 40.3926 176.036 40.3981C176.063 40.399 176.293 40.821 176.546 41.3347C178.26 44.8201 180.471 47.7965 182.309 49.0947C183.61 50.0132 184.7 50.3736 186.152 50.3662C186.953 50.3622 187.223 50.325 187.781 50.1426C189.546 49.5652 190.895 48.1301 191.325 46.3707C191.514 45.5943 191.422 44.1898 191.129 43.4026C191.097 43.3167 191.216 43.1986 191.505 43.0268C192.494 42.441 193.397 41.1903 193.713 39.971C194.326 37.6058 192.972 34.7723 190.702 33.67C189.819 33.2413 189.12 33.0987 187.906 33.0998C186.795 33.1008 185.912 33.2357 184.683 33.5919C182.723 34.1599 179.8 35.5431 177.506 36.9886C176.507 37.6182 176.518 37.598 177.757 36.5354C178.756 35.6781 180.811 33.591 181.542 32.691C182.684 31.2861 183.568 29.7739 183.974 28.5337C184.706 26.2979 184.21 24.1352 182.605 22.5611C181.535 21.5123 180.473 21.0269 179.093 20.9569C177.766 20.8896 176.629 21.2489 175.687 22.0336L175.288 22.3658L174.83 22.0615C173.872 21.4253 173.087 21.1852 171.963 21.1838C171.004 21.1828 170.363 21.3402 169.497 21.79C167.917 22.6106 166.926 24.1345 166.674 26.1344C166.459 27.8378 166.909 29.3849 168.239 31.5044C169.523 33.5532 170.495 34.8209 171.908 36.2939C172.66 37.0779 172.66 37.0785 172.16 36.7026C169.848 34.9662 166.205 33.4715 163.439 33.1254C160.584 32.768 158.203 33.9945 157.092 36.395C156.668 37.3116 156.55 37.8433 156.557 38.8083C156.57 40.5563 157.507 42.2356 158.928 43.0556L159.313 43.2774L159.207 43.5837C158.905 44.4545 158.872 45.708 159.128 46.5769C159.645 48.3335 161.078 49.7369 162.846 50.2192C164.068 50.5524 165.827 50.3572 167.006 49.7579C169.215 48.6344 171.498 45.8993 173.574 41.8902L174.248 40.5865L174.221 41.7871C174.16 44.5225 174.809 47.4126 175.973 49.5841C177.627 52.6683 180.391 55.0319 184.314 56.7174L184.857 56.9507L184.523 57.0996C184.339 57.1815 182.146 58.174 179.65 59.3054C177.153 60.4367 175.105 61.361 175.097 61.3594C175.089 61.3574 171.557 59.8439 167.246 57.9953ZM16.9971 38.9338V18.4264H22.0926H27.1881V34.8406V51.2549H41.577H55.9659L60.0584 55.348L64.1509 59.4412H40.574H16.9971V38.9338ZM62.0839 53.2804L55.9235 47.1196V32.773V18.4264H61.0608H66.1981V30.727V43.0275L70.3125 47.1412L74.4268 51.2549H83.6569H92.887L92.8657 34.8406L92.8444 18.4264H97.9821H103.12V38.9338V59.4412H85.682H68.2442L62.0839 53.2804ZM115.483 49.2084L125.715 38.9755L115.441 28.7009L105.167 18.4264H111.298H117.428L124.651 25.6213L131.874 32.8163L139.07 25.6213L146.265 18.4264H152.405H158.544L148.29 28.68L138.037 38.9336L148.29 49.1874L158.544 59.4412H152.363H146.182L139.018 52.2784L131.855 45.1156L124.692 52.2784L117.529 59.4412H111.39H105.25L115.483 49.2084ZM201.605 45.0735V30.7058H206.743H211.88V45.0735V59.4412H206.743H201.605V45.0735ZM215.973 55.348V51.2549H220.087H224.202L230.341 45.1152L236.48 38.9755L230.299 32.7941L224.118 26.6126H211.825H199.531L195.546 22.5404L191.56 18.4681L209.927 18.447L228.294 18.4259L238.548 28.6797L248.802 38.9334L238.548 49.1873L228.295 59.4411H222.134H215.973V55.348ZM250.827 45.0943L250.848 30.7475L255.965 30.726L261.081 30.7045V45.0729V59.4412H255.944H250.806L250.827 45.0943ZM265.174 55.348V51.2549H269.288H273.403L279.563 45.0941L285.723 38.9333L279.563 32.773L273.402 26.6126L261.081 26.6122L248.76 26.6118L244.782 22.5399L240.805 18.4681L259.15 18.447L277.495 18.4259L287.77 28.7006L298.044 38.9754L287.812 49.2082L277.579 59.4411H271.377H265.174V55.348ZM172.776 37.1587C172.672 37.0262 172.675 37.0232 172.807 37.1271C172.947 37.2362 172.991 37.3048 172.922 37.3048C172.905 37.3048 172.839 37.2391 172.776 37.1587Z"
            fill="white" />
    </g>
    <defs>
        <filter id="filter0_d_1661_21074" x="0.729687" y="0.153515" width="321.558" height="115.233"
            filterUnits="userSpaceOnUse" color-interpolation-filters="sRGB">
            <feFlood flood-opacity="0" result="BackgroundImageFix" />
            <feColorMatrix in="SourceAlpha" type="matrix"
                values="0 0 0 0 0 0 0 0 0 0 0 0 0 0 0 0 0 0 127 0"
                result="hardAlpha" />
            <feOffset dx="4" dy="4" />
            <feGaussianBlur stdDeviation="10.1" />
            <feComposite in2="hardAlpha" operator="out" />
            <feColorMatrix type="matrix"
                values="0 0 0 0 0.117647 0 0 0 0 0.721569 0 0 0 0 0.329412 0 0 0 0.77 0" />
            <feBlend mode="normal" in2="BackgroundImageFix" result="effect1_dropShadow_1661_21074" />
            <feBlend mode="normal" in="SourceGraphic" in2="effect1_dropShadow_1661_21074"
                result="shape" />
        </filter>
    </defs>
</svg>