<?xml version="1.0" encoding="us-ascii" standalone="no"?><svg xmlns="http://www.w3.org/2000/svg" xmlns:xlink="http://www.w3.org/1999/xlink" contentStyleType="text/css" height="806px" preserveAspectRatio="none" style="width:939px;height:806px;background:#FFFFFF;" version="1.1" viewBox="0 0 939 806" width="939px" zoomAndPan="magnify"><defs><linearGradient id="g1dtcqxf4y5fn50" x1="50%" x2="50%" y1="0%" y2="100%"><stop offset="0%" stop-color="#006400"/><stop offset="100%" stop-color="#000000"/></linearGradient><filter height="300%" id="f1dtcqxf4y5fn5" width="300%" x="-1" y="-1"><feGaussianBlur result="blurOut" stdDeviation="2.0"/><feColorMatrix in="blurOut" result="blurOut2" type="matrix" values="0 0 0 0 0 0 0 0 0 0 0 0 0 0 0 0 0 0 .4 0"/><feOffset dx="4.0" dy="4.0" in="blurOut2" result="blurOut3"/><feBlend in="SourceGraphic" in2="blurOut3" mode="normal"/></filter><filter height="1" id="b1dtcqxf4y5fn50" width="1" x="0" y="0"><feFlood flood-color="#90EE90" result="flood"/><feComposite in="SourceGraphic" in2="flood" operator="over"/></filter><filter height="1" id="b1dtcqxf4y5fn51" width="1" x="0" y="0"><feFlood flood-color="#ADD8E6" result="flood"/><feComposite in="SourceGraphic" in2="flood" operator="over"/></filter><filter height="1" id="b1dtcqxf4y5fn52" width="1" x="0" y="0"><feFlood flood-color="#800080" result="flood"/><feComposite in="SourceGraphic" in2="flood" operator="over"/></filter><filter height="1" id="b1dtcqxf4y5fn53" width="1" x="0" y="0"><feFlood flood-color="#FF0000" result="flood"/><feComposite in="SourceGraphic" in2="flood" operator="over"/></filter></defs><g><!--cluster Game Server--><g id="cluster_Game Server"><rect fill="#90EE90" height="90" rx="2.5" ry="2.5" style="stroke:#181818;stroke-width:1.0;" width="564" x="191.5" y="371"/><text fill="#000000" font-family="sans-serif" font-size="14" font-weight="bold" lengthAdjust="spacing" textLength="92" x="427.5" y="387.5332">Game Server</text></g><!--cluster Game Server API Functions--><g id="cluster_Game Server API Functions"><rect fill="none" height="90" rx="2.5" ry="2.5" style="stroke:#181818;stroke-width:1.0;" width="555" x="352.5" y="494"/><text fill="#000000" font-family="sans-serif" font-size="14" font-weight="bold" lengthAdjust="spacing" textLength="192" x="534" y="510.5332">Game Server API Functions</text></g><!--cluster GameDev Provided \n Services--><g id="cluster_GameDev Provided \n Services"><rect fill="none" height="108" rx="2.5" ry="2.5" style="stroke:#181818;stroke-width:1.0;" width="156" x="245.5" y="7"/><text fill="#000000" font-family="sans-serif" font-size="14" font-weight="bold" lengthAdjust="spacing" textLength="136" x="253.5" y="23.5332">GameDev Provided</text><text fill="#000000" font-family="sans-serif" font-size="14" font-weight="bold" lengthAdjust="spacing" textLength="62" x="294.5" y="41.1426">Services</text></g><!--entity server_frontend--><g id="elem_server_frontend"><rect fill="#90EE90" height="37.6094" rx="2.5" ry="2.5" style="stroke:#181818;stroke-width:0.5;" width="130" x="207.5" y="407"/><text fill="#000000" font-family="sans-serif" font-size="14" lengthAdjust="spacing" textLength="110" x="217.5" y="431.5332">Server Front-End</text></g><!--entity server_backend--><g id="elem_server_backend"><rect fill="#90EE90" height="37.6094" rx="2.5" ry="2.5" style="stroke:#181818;stroke-width:0.5;" width="127" x="373" y="407"/><text fill="#000000" font-family="sans-serif" font-size="14" lengthAdjust="spacing" textLength="107" x="383" y="431.5332">Server Back-End</text></g><!--entity socket_gateway--><g id="elem_socket_gateway"><polygon fill="#008000" points="739.5,426,688.5,412,586.5,412,535.5,426,586.5,440,688.5,440,739.5,426" style="stroke:#181818;stroke-width:0.5;"/><text fill="#000000" font-family="sans-serif" font-size="14" lengthAdjust="spacing" textLength="102" x="586.5" y="431.5332">Socket Gateway</text></g><!--entity user_system--><g id="elem_user_system"><rect fill="#90EE90" height="37.6094" rx="2.5" ry="2.5" style="stroke:#181818;stroke-width:0.5;" width="138" x="368.5" y="530"/><text fill="#000000" font-family="sans-serif" font-size="14" lengthAdjust="spacing" textLength="118" x="378.5" y="554.5332">User Accounts Info</text></g><!--entity money_system--><g id="elem_money_system"><rect fill="#90EE90" height="37.6094" rx="2.5" ry="2.5" style="stroke:#181818;stroke-width:0.5;" width="191" x="542" y="530"/><text fill="#000000" font-family="sans-serif" font-size="14" lengthAdjust="spacing" textLength="171" x="552" y="554.5332">Money Transaction System</text></g><!--entity other_endpoints--><g id="elem_other_endpoints"><rect fill="#90EE90" height="37.6094" rx="2.5" ry="2.5" style="stroke:#181818;stroke-width:0.5;" width="123" x="768" y="530"/><text fill="#000000" font-family="sans-serif" font-size="14" lengthAdjust="spacing" textLength="103" x="778" y="554.5332">Other Endpoints</text></g><!--entity game_backend--><g id="elem_game_backend"><rect fill="#ADD8E6" height="37.6094" rx="2.5" ry="2.5" style="stroke:#181818;stroke-width:0.5;" width="124" x="261.5" y="61"/><text fill="#000000" font-family="sans-serif" font-size="14" lengthAdjust="spacing" textLength="104" x="271.5" y="85.5332">Game Backends</text></g><!--entity users--><g id="elem_users"><ellipse cx="46.5" cy="221.5" fill="#F1F1F1" rx="8" ry="8" style="stroke:#181818;stroke-width:0.5;"/><path d="M46.5,229.5 L46.5,256.5 M33.5,237.5 L59.5,237.5 M46.5,256.5 L33.5,271.5 M46.5,256.5 L59.5,271.5 " fill="none" style="stroke:#181818;stroke-width:0.5;"/><text fill="#000000" font-family="sans-serif" font-size="14" lengthAdjust="spacing" textLength="81" x="6" y="287.5332">Online Users</text></g><!--entity cusers--><g id="elem_cusers"><ellipse cx="164.5" cy="49.5" fill="#F1F1F1" rx="8" ry="8" style="stroke:#181818;stroke-width:0.5;"/><path d="M164.5,57.5 L164.5,84.5 M151.5,65.5 L177.5,65.5 M164.5,84.5 L151.5,99.5 M164.5,84.5 L177.5,99.5 " fill="none" style="stroke:#181818;stroke-width:0.5;"/><text fill="#000000" font-family="sans-serif" font-size="14" lengthAdjust="spacing" textLength="85" x="122" y="115.5332">Local Players</text></g><!--entity devs1--><g id="elem_devs1"><ellipse cx="773.5" cy="49.5" fill="#ADD8E6" rx="8" ry="8" style="stroke:#181818;stroke-width:0.5;"/><path d="M773.5,57.5 L773.5,84.5 M760.5,65.5 L786.5,65.5 M773.5,84.5 L760.5,99.5 M773.5,84.5 L786.5,99.5 " fill="none" style="stroke:#181818;stroke-width:0.5;"/><text fill="#0000FF" font-family="sans-serif" font-size="14" lengthAdjust="spacing" textLength="114" x="716.5" y="115.5332">Game Developers</text></g><!--entity merchant--><g id="elem_merchant"><ellipse cx="567.5" cy="49.5" fill="#F1F1F1" rx="8" ry="8" style="stroke:#181818;stroke-width:0.5;"/><path d="M567.5,57.5 L567.5,84.5 M554.5,65.5 L580.5,65.5 M567.5,84.5 L554.5,99.5 M567.5,84.5 L580.5,99.5 " fill="none" style="stroke:#181818;stroke-width:0.5;"/><text fill="#000000" font-family="sans-serif" font-size="14" lengthAdjust="spacing" textLength="66" x="534.5" y="115.5332">Merchants</text></g><!--entity arcades--><g id="elem_arcades"><rect fill="url(#g1dtcqxf4y5fn50)" filter="url(#f1dtcqxf4y5fn5)" height="37.6094" rx="10" ry="10" style="stroke:#0000FF;stroke-width:0.5;" width="72" x="136.5" y="233"/><text fill="#FFFFFF" font-family="sans-serif" font-size="14" lengthAdjust="spacing" textLength="52" x="146.5" y="257.5332">Arcades</text></g><!--entity admin--><g id="elem_admin"><rect fill="#90EE90" height="55.2188" rx="2.5" ry="2.5" style="stroke:#181818;stroke-width:0.5;" width="152" x="540.5" y="224.5"/><text fill="#000000" font-family="sans-serif" font-size="14" lengthAdjust="spacing" textLength="80" x="550.5" y="249.0332">Admin Portal</text><text fill="#000000" font-family="sans-serif" font-size="14" lengthAdjust="spacing" textLength="132" x="550.5" y="266.6426">-Issues Dev API keys</text></g><!--entity webgl_games--><g id="elem_webgl_games"><rect fill="#ADD8E6" height="55.2188" rx="2.5" ry="2.5" style="stroke:#181818;stroke-width:0.5;" width="114" x="258.5" y="224.5"/><text fill="#000000" font-family="sans-serif" font-size="14" lengthAdjust="spacing" textLength="90" x="268.5" y="249.0332">WebGL Game</text><text fill="#000000" font-family="sans-serif" font-size="14" lengthAdjust="spacing" textLength="77" x="276.5" y="266.6426">[Static Files]</text></g><!--entity data_store--><g id="elem_data_store"><path d="M593.5,641 C593.5,631 637.5,631 637.5,631 C637.5,631 681.5,631 681.5,641 L681.5,667.6094 C681.5,677.6094 637.5,677.6094 637.5,677.6094 C637.5,677.6094 593.5,677.6094 593.5,667.6094 L593.5,641 " fill="#90EE90" style="stroke:#181818;stroke-width:0.5;"/><path d="M593.5,641 C593.5,651 637.5,651 637.5,651 C637.5,651 681.5,651 681.5,641 " fill="none" style="stroke:#181818;stroke-width:0.5;"/><text fill="#000000" font-family="sans-serif" font-size="14" lengthAdjust="spacing" textLength="68" x="603.5" y="669.5332">Data Store</text></g><!--entity postman--><g id="elem_postman"><rect fill="#90EE90" height="55.2188" rx="2.5" ry="2.5" style="stroke:#181818;stroke-width:0.5;" width="197" x="736" y="224.5"/><text fill="#000000" font-family="sans-serif" font-size="14" lengthAdjust="spacing" textLength="52" x="746" y="249.0332">&#160;&#160;&#160;&#160;&#160;&#160;&#160;&#160;&#160;&#160;&#160;&#160;&#160;</text><text fill="#000000" font-family="sans-serif" font-size="14" font-weight="bold" lengthAdjust="spacing" textLength="69" x="798" y="249.0332">POSTMAN</text><text fill="#000000" font-family="sans-serif" font-size="14" lengthAdjust="spacing" textLength="4" x="867" y="249.0332">&#160;</text><text fill="#000000" font-family="sans-serif" font-size="14" lengthAdjust="spacing" textLength="173" x="750" y="266.6426">Web GUI for API integration</text></g><!--link cusers to arcades--><g id="link_cusers_arcades"><path d="M161.39,119.32 C160.34,138.47 159.81,161.99 161.5,183 C162.87,200.05 165.0082,213.3777 167.6282,227.0177 " fill="none" id="cusers-to-arcades" style="stroke:#000000;stroke-width:1.0;"/><polygon fill="#000000" points="168.76,232.91,170.9905,223.317,167.8168,227.9998,163.1341,224.8261,168.76,232.91" style="stroke:#000000;stroke-width:1.0;"/><text fill="#000000" font-family="sans-serif" font-size="13" lengthAdjust="spacing" textLength="4" x="219" y="163.4951">&#160;</text><text fill="#000000" font-family="sans-serif" font-size="13" lengthAdjust="spacing" textLength="117" x="162.5" y="179.8467">Play Arcade Games</text></g><!--link users to server_frontend--><g id="link_users_server_frontend"><path d="M46.38,291.02 C48.25,312.19 54,337.69 69.5,355 C104.44,394.02 156.2547,410.2955 201.2447,417.9355 " fill="none" id="users-to-server_frontend" style="stroke:#000000;stroke-width:1.0;"/><polygon fill="#000000" points="207.16,418.94,198.9567,413.4897,202.2306,418.1029,197.6174,421.3768,207.16,418.94" style="stroke:#000000;stroke-width:1.0;"/><text fill="#000000" font-family="sans-serif" font-size="13" lengthAdjust="spacing" textLength="46" x="73" y="335.4951">Manage</text><text fill="#000000" font-family="sans-serif" font-size="13" lengthAdjust="spacing" textLength="55" x="70.5" y="351.8467">Accounts</text></g><!--link devs1 to admin--><g id="link_devs1_admin"><path d="M737.51,119.02 C728.35,128.77 718.53,139.25 709.5,149 C685.89,174.49 663.2198,199.3847 644.4998,220.0347 " fill="none" id="devs1-to-admin" style="stroke:#000000;stroke-width:1.0;"/><polygon fill="#000000" points="640.47,224.48,649.4783,220.4986,643.8282,220.7756,643.5512,215.1255,640.47,224.48" style="stroke:#000000;stroke-width:1.0;"/><text fill="#000000" font-family="sans-serif" font-size="13" lengthAdjust="spacing" textLength="75" x="710.5" y="163.4951">Manage their</text><text fill="#000000" font-family="sans-serif" font-size="13" lengthAdjust="spacing" textLength="42" x="731" y="179.8467">Games</text></g><!--link devs1 to postman--><g id="link_devs1_postman"><path d="M787.19,119.15 C798.68,151.16 812.7643,190.4223 822.9043,218.6923 " fill="none" id="devs1-to-postman" style="stroke:#000000;stroke-width:1.0;"/><polygon fill="#000000" points="824.93,224.34,825.6565,214.518,823.2419,219.6336,818.1263,217.219,824.93,224.34" style="stroke:#000000;stroke-width:1.0;"/><text fill="#000000" font-family="sans-serif" font-size="13" lengthAdjust="spacing" textLength="71" x="809.5" y="163.4951">Test Luxodd</text><text fill="#000000" font-family="sans-serif" font-size="13" lengthAdjust="spacing" textLength="21" x="838.5" y="179.8467">API</text></g><!--link merchant to admin--><g id="link_merchant_admin"><path d="M560.14,119.24 C557.92,138.8 557.63,162.7 564.5,183 C569.65,198.2 575.8243,208.1082 585.7343,219.7682 " fill="none" id="merchant-to-admin" style="stroke:#000000;stroke-width:1.0;"/><polygon fill="#000000" points="589.62,224.34,586.8394,214.8918,586.3819,220.5301,580.7436,220.0727,589.62,224.34" style="stroke:#000000;stroke-width:1.0;"/><text fill="#000000" font-family="sans-serif" font-size="13" lengthAdjust="spacing" textLength="100" x="565.5" y="163.4951">Manage Arcade's</text><text fill="#000000" font-family="sans-serif" font-size="13" lengthAdjust="spacing" textLength="68" x="585.5" y="179.8467">Live Games</text></g><!--link arcades to server_backend--><g id="link_arcades_server_backend"><path d="M206.3163,274.2041 C218.1563,281.1441 227.06,285.63 240.5,291 C290.35,310.93 312.78,291.31 357.5,321 C374.69,332.41 404.0832,375.1403 421.5332,401.7903 " fill="none" id="arcades-server_backend" style="stroke:#000000;stroke-width:1.0;"/><polygon fill="#000000" points="201.14,271.17,206.8818,279.172,205.4536,273.6984,210.9272,272.2703,201.14,271.17" style="stroke:#000000;stroke-width:1.0;"/><polygon fill="#000000" points="424.82,406.81,423.2362,397.0893,422.081,402.627,416.5434,401.4717,424.82,406.81" style="stroke:#000000;stroke-width:1.0;"/><text fill="#800080" font-family="sans-serif" font-size="13" lengthAdjust="spacing" textLength="101" x="387.5" y="343.4951">Pub/Sub Channel</text></g><!--link admin to server_backend--><g id="link_admin_server_backend"><path d="M584.88,279.59 C570.5,291.93 553.4,306.95 538.5,321 C507.59,350.15 477.4399,381.468 457.5299,402.548 " fill="none" id="admin-to-server_backend" style="stroke:#FF0000;stroke-width:1.0;"/><polygon fill="#FF0000" points="453.41,406.91,462.4978,403.1136,456.8432,403.275,456.6818,397.6205,453.41,406.91" style="stroke:#FF0000;stroke-width:1.0;"/><text fill="#FF0000" font-family="sans-serif" font-size="13" lengthAdjust="spacing" textLength="114" x="539.5" y="335.4951">Game deployment /</text><text fill="#FF0000" font-family="sans-serif" font-size="13" lengthAdjust="spacing" textLength="79" x="557" y="351.8467">Arcade config</text></g><!--reverse link webgl_games to admin--><g id="link_webgl_games_admin"><path d="M378.82,252 C426.33,252 488.25,252 540.32,252 " fill="none" id="webgl_games-backto-admin" style="stroke:#FF0000;stroke-width:1.0;"/><polygon fill="#FF0000" points="372.82,252,381.82,256,377.82,252,381.82,248,372.82,252" style="stroke:#FF0000;stroke-width:1.0;"/><text fill="#FF0000" font-family="sans-serif" font-size="13" lengthAdjust="spacing" textLength="131" x="391" y="245.4951">Uploads Game Assets</text></g><!--link arcades to server_frontend--><g id="link_arcades_server_frontend"><path d="M158.32,271.02 C143.46,292.28 124.33,328.12 140.5,355 C155.41,379.78 176.8312,393.9531 202.5212,404.6531 " fill="none" id="arcades-to-server_frontend" style="stroke:#000000;stroke-width:1.0;"/><polygon fill="#000000" points="208.06,406.96,201.2898,399.8071,203.4443,405.0376,198.2139,407.1921,208.06,406.96" style="stroke:#000000;stroke-width:1.0;"/><text fill="#000000" font-family="sans-serif" font-size="13" lengthAdjust="spacing" textLength="48" x="142" y="335.4951">Electron</text><text fill="#000000" font-family="sans-serif" font-size="13" lengthAdjust="spacing" textLength="49" x="145.5" y="351.8467">(HTTPS)</text></g><!--link server_frontend to arcades--><g id="link_server_frontend_arcades"><path d="M261.98,406.9 C242.77,373.86 205.2358,309.307 186.0258,276.267 " fill="none" id="server_frontend-to-arcades" style="stroke:#800080;stroke-width:2.0;"/><polygon fill="#800080" points="183.01,271.08,184.0757,280.871,185.5232,275.4025,190.9917,276.85,183.01,271.08" style="stroke:#800080;stroke-width:2.0;"/><text fill="#800080" font-family="sans-serif" font-size="13" lengthAdjust="spacing" textLength="27" x="232.5" y="343.4951">SSE</text></g><!--link webgl_games to server_frontend--><g id="link_webgl_games_server_frontend"><path d="M308.78,279.88 C299.95,315.21 284.66,376.36 277.06,406.76 " fill="none" id="webgl_games-server_frontend" style="stroke:#800080;stroke-width:1.0;stroke-dasharray:7.0,7.0;"/><text fill="#800080" font-family="sans-serif" font-size="13" lengthAdjust="spacing" textLength="49" x="299.5" y="343.4951">IFRAME</text></g><!--link webgl_games to socket_gateway--><g id="link_webgl_games_socket_gateway"><path d="M378.652,264.4799 C475.062,282.1199 653.95,315.46 658.5,321 C680.24,347.48 662.4306,385.2554 649.3506,406.7354 " fill="none" id="webgl_games-socket_gateway" style="stroke:#800080;stroke-width:2.0;"/><polygon fill="#800080" points="372.75,263.4,380.8831,268.9545,377.6684,264.2999,382.323,261.0851,372.75,263.4" style="stroke:#800080;stroke-width:2.0;"/><polygon fill="#800080" points="646.23,411.86,654.3273,406.2534,648.8305,407.5895,647.4945,402.0926,646.23,411.86" style="stroke:#800080;stroke-width:2.0;"/><text fill="#800080" font-family="sans-serif" font-size="13" lengthAdjust="spacing" textLength="30" x="701" y="335.4951">Unity</text><text fill="#800080" font-family="sans-serif" font-size="13" lengthAdjust="spacing" textLength="91" x="672.5" y="351.8467">Websocket API</text></g><!--link socket_gateway to user_system--><g id="link_socket_gateway_user_system"><path d="M604.5863,442.6684 C581.3363,453.9984 552.8,468.64 524.5,486 C502.21,499.67 482.8793,513.4891 465.6993,526.3791 " fill="none" id="socket_gateway-user_system" style="stroke:#800080;stroke-width:2.0;"/><polygon fill="#800080" points="609.98,440.04,600.1373,440.3868,605.4853,442.2303,603.6418,447.5784,609.98,440.04" style="stroke:#800080;stroke-width:2.0;"/><polygon fill="#800080" points="460.9,529.98,470.4996,527.7782,464.8994,526.9793,465.6984,521.3791,460.9,529.98" style="stroke:#800080;stroke-width:2.0;"/></g><!--link socket_gateway to money_system--><g id="link_socket_gateway_money_system"><path d="M637.5,446.41 C637.5,468.19 637.5,499.29 637.5,523.81 " fill="none" id="socket_gateway-money_system" style="stroke:#800080;stroke-width:2.0;"/><polygon fill="#800080" points="637.5,440.41,633.5,449.41,637.5,445.41,641.5,449.41,637.5,440.41" style="stroke:#800080;stroke-width:2.0;"/><polygon fill="#800080" points="637.5,529.81,641.5,520.81,637.5,524.81,633.5,520.81,637.5,529.81" style="stroke:#800080;stroke-width:2.0;"/></g><!--link socket_gateway to other_endpoints--><g id="link_socket_gateway_other_endpoints"><path d="M671.5857,442.7426 C694.9257,453.8726 722.98,468.23 750.5,486 C771.15,499.33 788.4238,512.9331 803.9038,525.9231 " fill="none" id="socket_gateway-other_endpoints" style="stroke:#800080;stroke-width:2.0;"/><polygon fill="#800080" points="666.17,440.16,672.5719,447.6444,670.6831,442.3121,676.0153,440.4234,666.17,440.16" style="stroke:#800080;stroke-width:2.0;"/><polygon fill="#800080" points="808.5,529.78,804.177,520.9306,804.6699,526.566,799.0345,527.0588,808.5,529.78" style="stroke:#800080;stroke-width:2.0;"/></g><!--link postman to socket_gateway--><g id="link_postman_socket_gateway"><path d="M830.15,279.92 C825.24,302.48 815.21,334.24 795.5,355 C767.51,384.48 730.6207,400.6151 696.7007,410.9251 " fill="none" id="postman-to-socket_gateway" style="stroke:#800080;stroke-width:2.0;"/><polygon fill="#800080" points="690.96,412.67,700.7343,413.8798,695.7439,411.2159,698.4078,406.2256,690.96,412.67" style="stroke:#800080;stroke-width:2.0;"/><text fill="#800080" font-family="sans-serif" font-size="13" lengthAdjust="spacing" textLength="59" x="834.5" y="335.4951">Test Unity</text><text fill="#800080" font-family="sans-serif" font-size="13" lengthAdjust="spacing" textLength="91" x="820.5" y="351.8467">Websocket API</text></g><!--link user_system to data_store--><g id="link_user_system_data_store"><path d="M472.34,568.03 C506.14,585.52 552.2017,609.3516 588.6717,628.2316 " fill="none" id="user_system-to-data_store" style="stroke:#800080;stroke-width:2.0;"/><polygon fill="#800080" points="594,630.99,587.8464,623.3002,589.5597,628.6913,584.1686,630.4046,594,630.99" style="stroke:#800080;stroke-width:2.0;"/></g><!--link money_system to data_store--><g id="link_money_system_data_store"><path d="M637.5,568.03 C637.5,585.52 637.5,606.11 637.5,624.99 " fill="none" id="money_system-to-data_store" style="stroke:#800080;stroke-width:2.0;"/><polygon fill="#800080" points="637.5,630.99,641.5,621.99,637.5,625.99,633.5,621.99,637.5,630.99" style="stroke:#800080;stroke-width:2.0;"/></g><!--link other_endpoints to data_store--><g id="link_other_endpoints_data_store"><path d="M796.06,568.03 C763.61,585.52 719.5614,609.2627 684.5414,628.1427 " fill="none" id="other_endpoints-to-data_store" style="stroke:#800080;stroke-width:2.0;"/><polygon fill="#800080" points="679.26,630.99,689.0803,630.24,683.6611,628.6173,685.2839,623.1981,679.26,630.99" style="stroke:#800080;stroke-width:2.0;"/></g><!--link game_backend to webgl_games--><g id="link_game_backend_webgl_games"><path d="M322.359,105.1834 C320.949,135.2534 318.6818,183.4566 317.0418,218.3366 " fill="none" id="game_backend-webgl_games" style="stroke:#000000;stroke-width:1.0;"/><polygon fill="#000000" points="322.64,99.19,318.2228,107.9928,322.4058,104.1845,326.2141,108.3675,322.64,99.19" style="stroke:#000000;stroke-width:1.0;"/><polygon fill="#000000" points="316.76,224.33,321.1783,215.5278,316.9948,219.3355,313.1871,215.1521,316.76,224.33" style="stroke:#000000;stroke-width:1.0;"/><text fill="#000000" font-family="sans-serif" font-size="13" lengthAdjust="spacing" textLength="66" x="320.5" y="171.4951">Websocket</text></g><rect fill="#DDDDDD" height="80.4375" id="_legend" rx="7.5" ry="7.5" style="stroke:#000000;stroke-width:1.0;" width="168" x="12" y="705.6094"/><text fill="#000000" filter="url(#b1dtcqxf4y5fn50)" font-family="sans-serif" font-size="14" lengthAdjust="spacing" textLength="94" x="21" y="725.1426">Client Services</text><text fill="#000000" filter="url(#b1dtcqxf4y5fn51)" font-family="sans-serif" font-size="14" lengthAdjust="spacing" textLength="96" x="21" y="742.752">Game Services</text><text fill="#FFFFFF" filter="url(#b1dtcqxf4y5fn52)" font-family="sans-serif" font-size="14" lengthAdjust="spacing" textLength="150" x="21" y="760.3613">Game Server Functions</text><text fill="#FFFFFF" filter="url(#b1dtcqxf4y5fn53)" font-family="sans-serif" font-size="14" lengthAdjust="spacing" textLength="105" x="21" y="777.9707">Admin Functions</text><!--SRC=[ZLPRR-eu47xthnZHXvvJBQUxgtr228bUw462BMf0vw6jAfCC8MgmaUr0sLN_-uxj19n0kyrJOdzpd_acF3PIGUjUv9b0c6bKkWLSGs7V6FUt8ndp72OvtrNNSUs-6yjSgivLNc3lZgyGRd23kLnNw0Gt-Wyu6sNfqbXG9JT65I-vC1wrAh-OVit4cYk-WbYkrbAWC97PvGWAOyD5ccC0wIibjzVMFbpbF7vbBBZS2tIxNCKymLuF_cL0pnL1KoKBaNZP6wvUxnIYQ7ij3YDLWghIJMxRmsZ94xdDH0f6bKSFNeqIgE3FtztHG0hZ1NyjCuFidIsp125mGnjKACrkZMpl9RJwxbgt0Y1bnh_h6Z1PPG8cKXcgp9De3xKkKDl4GtyoX5VS-QHoX_EfT_5HVW8rlt1-Dm9NioS1y1WPRh8O1bcE-jafsE8ypLzIGkYmWlGatF0vrwJbXjuWefAYBpTzlcZx-R5XPp92jK7L2b5bUVQ5XvO7mK1HIjkt8d4cj3jyMTX354dDpcbvM_2c-9pEJaalyOsdKf2i982X_1ZSyfqNTKUK47S4PrxgdNqOdgl7e12noQJGBHzV0BKp1_qufYOo6ePY8VS3-A9tr2Qh8_y2wJ55kOEfua9pPm4Y9-Cdobv-GSczMP8Fb9orpAffbFRi1QkpclXxBLO8dukBoNqq7VV_lhYm7KNz1NUp8IoapmEfmbHnwwYpifRQh7YpGHdp_0BjTgzg_Wwfimm4VaHSpsfsW3KxeZFcWgUshQlSCaz3JgURYWwK60erKzPTh_I0Azthm1IrWL7n9fF4uYWKLj5LgB3KvrqyrnOwoZQLisKaq0tyhLgm0oM9hWkrph4tAUQNKJ67Qp8XC6VUGFlnx06Jvq_4wTfJS8BhNEvMTWGkdqHmM-OlbcAHfPNUqLvnEEyrhJFInnFjoQAlDPf3H2SB0BSvDGbzsZHy-pcTJgBlh8bgFyvbdlnsDd5XFn_gVPIHABezalxnM0aMFqBFcxB3mKD_VClEZvpidagbS_K0hYww3Lzx3IwWjWsJrpqEhOvlEZaJcTdjIrKUsWdoOgxfM8D-JXW9YECBw90YlW1li0AhvlT_Owr7vSRfI_66D7XivB1fM8thFaKscUrJCBL1X9vO_wATNImMSDuaUhjq9qfkQCCxTh2ydyMqnO-NcHkUAzzGdcTjipGMaLkmxzRq0wxaXfIMpFEJiarVrzIyd7xNLFOFVLNMu9jJJewyxRup1lLUd55OeQdE8T4C6CinjVPpN1ZdSjV2EWTIxi5rdja8zjQwbnRIQwBTFo3irzy7qBBOPUctzXSf4BBRljgN9uGj6TKb_S_GiOmFoKR6_WC0]--></g></svg>