<?xml version="1.0" encoding="us-ascii" standalone="no"?><svg xmlns="http://www.w3.org/2000/svg" xmlns:xlink="http://www.w3.org/1999/xlink" contentStyleType="text/css" height="502px" preserveAspectRatio="none" style="width:601px;height:502px;background:#FFFFFF;" version="1.1" viewBox="0 0 601 502" width="601px" zoomAndPan="magnify"><defs/><g><text fill="#000000" font-family="sans-serif" font-size="14" font-weight="bold" lengthAdjust="spacing" textLength="401" x="93.25" y="24.5332">System Block Diagram (with Numbered Session Key Flow)</text><!--entity User--><g id="elem_User"><ellipse cx="59.5" cy="52.6094" fill="#F1F1F1" rx="8" ry="8" style="stroke:#181818;stroke-width:0.5;"/><path d="M59.5,60.6094 L59.5,87.6094 M46.5,68.6094 L72.5,68.6094 M59.5,87.6094 L46.5,102.6094 M59.5,87.6094 L72.5,102.6094 " fill="none" style="stroke:#181818;stroke-width:0.5;"/><text fill="#000000" font-family="sans-serif" font-size="14" lengthAdjust="spacing" textLength="29" x="45" y="118.6426">User</text></g><!--entity Client--><g id="elem_Client"><rect fill="#F1F1F1" height="47.6094" rx="2.5" ry="2.5" style="stroke:#181818;stroke-width:0.5;" width="105" x="7" y="251.1094"/><rect fill="#F1F1F1" height="10" style="stroke:#181818;stroke-width:0.5;" width="15" x="92" y="256.1094"/><rect fill="#F1F1F1" height="2" style="stroke:#181818;stroke-width:0.5;" width="4" x="90" y="258.1094"/><rect fill="#F1F1F1" height="2" style="stroke:#181818;stroke-width:0.5;" width="4" x="90" y="262.1094"/><text fill="#000000" font-family="sans-serif" font-size="14" lengthAdjust="spacing" textLength="65" x="22" y="285.6426">Client App</text></g><!--entity Server--><g id="elem_Server"><rect fill="#F1F1F1" height="118.0469" rx="2.5" ry="2.5" style="stroke:#181818;stroke-width:0.5;" width="82" x="360.5" y="216.1094"/><rect fill="#F1F1F1" height="10" style="stroke:#181818;stroke-width:0.5;" width="15" x="422.5" y="221.1094"/><rect fill="#F1F1F1" height="2" style="stroke:#181818;stroke-width:0.5;" width="4" x="420.5" y="223.1094"/><rect fill="#F1F1F1" height="2" style="stroke:#181818;stroke-width:0.5;" width="4" x="420.5" y="227.1094"/><text fill="#000000" font-family="sans-serif" font-size="14" lengthAdjust="spacing" textLength="4" x="375.5" y="250.6426">&#160;</text><text fill="#000000" font-family="sans-serif" font-size="14" lengthAdjust="spacing" textLength="4" x="375.5" y="268.252">&#160;</text><text fill="#000000" font-family="sans-serif" font-size="14" lengthAdjust="spacing" textLength="42" x="375.5" y="285.8613">Server</text><text fill="#000000" font-family="sans-serif" font-size="14" lengthAdjust="spacing" textLength="4" x="375.5" y="303.4707">&#160;</text><text fill="#000000" font-family="sans-serif" font-size="14" lengthAdjust="spacing" textLength="4" x="375.5" y="321.0801">&#160;</text></g><!--entity DB--><g id="elem_DB"><path d="M360,69.6094 C360,59.6094 400.5,59.6094 400.5,59.6094 C400.5,59.6094 441,59.6094 441,69.6094 L441,96.2188 C441,106.2188 400.5,106.2188 400.5,106.2188 C400.5,106.2188 360,106.2188 360,96.2188 L360,69.6094 " fill="#F1F1F1" style="stroke:#181818;stroke-width:0.5;"/><path d="M360,69.6094 C360,79.6094 400.5,79.6094 400.5,79.6094 C400.5,79.6094 441,79.6094 441,69.6094 " fill="none" style="stroke:#181818;stroke-width:0.5;"/><text fill="#000000" font-family="sans-serif" font-size="14" lengthAdjust="spacing" textLength="61" x="370" y="98.1426">Database</text></g><!--entity GCS--><g id="elem_GCS"><path d="M372.7038,437.2701 C375.7411,431.5959 380.6683,429.1924 385.3426,435.5506 C388.1661,427.8908 392.6319,426.6545 398.3301,432.8574 C399.4634,425.1206 406.075,424.2119 410.9898,429.0507 C413.9226,422.6485 417.3664,421.4698 422.4186,427.025 C428.0913,422.3881 433.2704,423.0179 436.2196,430.2041 C441.5238,425.8617 445.8091,426.188 447.9154,433.4322 C452.7797,428.5001 456.681,429.8733 459.6313,435.5466 C464.3427,429.4219 470.5776,428.7356 474.183,436.6897 C481.4105,438.9795 483.2488,445.396 476.5522,450.1387 C483.2833,451.0294 486.1932,455.0715 482.53,461.4537 C486.396,467.5943 485.2654,471.87 478.1415,474.2381 C482.456,481.4231 479.4754,485.5905 472.0921,487.3985 C468.7154,492.2333 463.6289,491.9541 461.3006,486.318 C456.9413,492.7494 451.8583,493.7026 446.8494,487.0346 C443.9619,492.5358 440.0133,492.5337 436.1488,488.0854 C432.5285,495.6119 426.3381,495.529 422.5238,488.264 C418.1195,493.5054 413.6667,492.8344 410.9216,486.5883 C407.9671,492.3694 401.7741,492.6092 398.1745,487.3318 C393.677,493.5836 388.9431,493.1052 384.2644,487.5451 C380.215,492.9854 375.6077,492.2121 373.0077,486.1292 C366.2018,483.3518 365.824,477.5259 371.8457,473.5623 C364.9699,470.6828 365.5673,465.3155 370.3509,461.0437 C364.4203,457.4202 365.3352,452.1155 370.8838,449 C366.293,444.2946 367.2563,440.4179 372.7038,437.2701 " fill="#F1F1F1" style="stroke:#181818;stroke-width:0.5;"/><text fill="#000000" font-family="sans-serif" font-size="14" lengthAdjust="spacing" textLength="87" x="378" y="457.6426">Google Cloud</text><text fill="#000000" font-family="sans-serif" font-size="14" lengthAdjust="spacing" textLength="50" x="378" y="475.252">Storage</text></g><!--entity Game--><g id="elem_Game"><rect fill="#F1F1F1" height="47.6094" rx="2.5" ry="2.5" style="stroke:#181818;stroke-width:0.5;" width="121" x="85" y="436.6094"/><rect fill="#F1F1F1" height="10" style="stroke:#181818;stroke-width:0.5;" width="15" x="186" y="441.6094"/><rect fill="#F1F1F1" height="2" style="stroke:#181818;stroke-width:0.5;" width="4" x="184" y="443.6094"/><rect fill="#F1F1F1" height="2" style="stroke:#181818;stroke-width:0.5;" width="4" x="184" y="447.6094"/><text fill="#000000" font-family="sans-serif" font-size="14" lengthAdjust="spacing" textLength="81" x="100" y="471.1426">Game iframe</text></g><!--link User to Client--><g id="link_User_Client"><path d="M59.5,122.5594 C59.5,161.0494 59.5,213.0194 59.5,244.9594 " fill="none" id="User-to-Client" style="stroke:#181818;stroke-width:1.0;"/><polygon fill="#181818" points="59.5,250.9594,63.5,241.9594,59.5,245.9594,55.5,241.9594,59.5,250.9594" style="stroke:#181818;stroke-width:1.0;"/><text fill="#000000" font-family="sans-serif" font-size="13" lengthAdjust="spacing" textLength="58" x="60.5" y="174.6045">User login</text></g><!--link Client to Server--><g id="link_Client_Server"><path d="M112.32,291.0494 C121.23,293.1494 130.45,294.9694 139.25,296.1094 C182,301.6394 290.62,302.5194 333.25,296.1094 C342.2,294.7594 345.8293,294.1569 354.6893,291.5769 " fill="none" id="Client-to-Server" style="stroke:#0000FF;stroke-width:1.0;"/><polygon fill="#0000FF" points="360.45,289.8994,350.6906,288.5751,355.6494,291.2973,352.9272,296.2561,360.45,289.8994" style="stroke:#0000FF;stroke-width:1.0;"/><text fill="#000000" font-family="sans-serif" font-size="13" lengthAdjust="spacing" textLength="192" x="140.25" y="292.6045">1. Request Game Access (Initial)</text></g><!--reverse link Client to Server--><g id="link_Client_Server"><path d="M118.19,275.1094 C186.48,275.1094 298.17,275.1094 360.31,275.1094 " fill="none" id="Client-backto-Server" style="stroke:#0000FF;stroke-width:1.0;"/><polygon fill="#0000FF" points="112.19,275.1094,121.19,279.1094,117.19,275.1094,121.19,271.1094,112.19,275.1094" style="stroke:#0000FF;stroke-width:1.0;"/><text fill="#000000" font-family="sans-serif" font-size="13" lengthAdjust="spacing" textLength="212" x="130.25" y="268.6045">2. Return Game URL &amp; Session Key</text></g><!--reverse link Server to Server--><g id="link_Server_Server"><path d="M448.516,254.9513 C467.216,252.9513 477.5,260.0994 477.5,275.1094 C477.5,290.1194 461.25,296.6294 442.55,294.6294 " fill="none" id="Server-backto-Server" style="stroke:#181818;stroke-width:1.0;"/><polygon fill="#181818" points="442.55,255.5894,451.9243,258.6096,447.5216,255.0576,451.0736,250.6549,442.55,255.5894" style="stroke:#181818;stroke-width:1.0;"/><text fill="#000000" font-family="sans-serif" font-size="13" lengthAdjust="spacing" textLength="53" x="500" y="272.6045">Generate</text><text fill="#000000" font-family="sans-serif" font-size="13" lengthAdjust="spacing" textLength="74" x="499.5" y="288.9561">Session Key</text></g><!--reverse link DB to Server--><g id="link_DB_Server"><path d="M354.8033,109.9739 C338.5033,121.3039 326.43,133.2494 317.5,152.1094 C311.03,165.7694 311.88,172.0794 317.5,186.1094 C326.38,208.2594 343.78,228.0094 360.46,243.1494 " fill="none" id="DB-backto-Server" style="stroke:#181818;stroke-width:1.0;"/><polygon fill="#181818" points="359.73,106.5494,350.0569,108.4017,355.6244,109.4031,354.6229,114.9706,359.73,106.5494" style="stroke:#181818;stroke-width:1.0;"/><text fill="#000000" font-family="sans-serif" font-size="13" lengthAdjust="spacing" textLength="82" x="335" y="166.6045">Store Session</text><text fill="#000000" font-family="sans-serif" font-size="13" lengthAdjust="spacing" textLength="103" x="334.5" y="182.9561">Details (incl. Key)</text></g><!--link DB to Server--><g id="link_DB_Server"><path d="M422.4585,111.6839 C431.4585,124.2239 437.84,135.6894 442.5,152.1094 C448.45,173.0694 446.1162,190.1757 438.2262,210.2357 " fill="none" id="DB-Server" style="stroke:#181818;stroke-width:1.0;"/><polygon fill="#181818" points="418.96,106.8094,420.958,116.4534,421.8754,110.8715,427.4573,111.7888,418.96,106.8094" style="stroke:#181818;stroke-width:1.0;"/><polygon fill="#181818" points="436.03,215.8194,443.0466,208.908,437.8601,211.1664,435.6018,205.9798,436.03,215.8194" style="stroke:#181818;stroke-width:1.0;"/><text fill="#000000" font-family="sans-serif" font-size="13" lengthAdjust="spacing" textLength="47" x="494" y="166.6045">Validate</text><text fill="#000000" font-family="sans-serif" font-size="13" lengthAdjust="spacing" textLength="128" x="465.5" y="182.9561">Session Key (Lookup)</text></g><!--link Client to Game--><g id="link_Client_Game"><path d="M52.59,299.1994 C46.27,324.9094 40.16,366.9594 56.5,398.1094 C64.96,414.2394 74.7218,423.7679 89.8718,433.3679 " fill="none" id="Client-to-Game" style="stroke:#0000FF;stroke-width:1.0;stroke-dasharray:7.0,7.0;"/><polygon fill="#0000FF" points="94.94,436.5794,89.4788,428.3833,90.7165,433.9031,85.1968,435.1409,94.94,436.5794" style="stroke:#0000FF;stroke-width:1.0;"/><text fill="#000000" font-family="sans-serif" font-size="13" lengthAdjust="spacing" textLength="89" x="75.5" y="378.6045">3. Loads Game</text><text fill="#000000" font-family="sans-serif" font-size="13" lengthAdjust="spacing" textLength="113" x="73.5" y="394.9561">w/ URL (+ Key info)</text></g><!--reverse link Server to Game--><g id="link_Server_Game"><path d="M355.0379,300.4538 C324.3379,317.1338 287.19,338.7594 252.5,364.1094 C221.74,386.5894 189.53,416.3094 168.59,436.5894 " fill="none" id="Server-backto-Game" style="stroke:#0000FF;stroke-width:1.0;"/><polygon fill="#0000FF" points="360.31,297.5894,350.4922,298.3713,355.9166,299.9764,354.3115,305.4008,360.31,297.5894" style="stroke:#0000FF;stroke-width:1.0;"/><text fill="#000000" font-family="sans-serif" font-size="13" lengthAdjust="spacing" textLength="141" x="253.5" y="378.6045">4. Establish WebSocket</text><text fill="#000000" font-family="sans-serif" font-size="13" lengthAdjust="spacing" textLength="121" x="275.5" y="394.9561">(sends Session Key)</text></g><!--link Server to GCS--><g id="link_Server_GCS"><path d="M408.4806,340.134 C411.8706,371.214 414.6114,396.3545 417.4114,422.1045 " fill="none" id="Server-GCS" style="stroke:#181818;stroke-width:1.0;"/><polygon fill="#181818" points="407.83,334.1694,404.8295,343.55,408.3722,339.1399,412.7823,342.6826,407.83,334.1694" style="stroke:#181818;stroke-width:1.0;"/><polygon fill="#181818" points="418.06,428.0694,421.0637,418.6897,417.5195,423.0987,413.1105,419.5545,418.06,428.0694" style="stroke:#181818;stroke-width:1.0;"/><text fill="#000000" font-family="sans-serif" font-size="13" lengthAdjust="spacing" textLength="34" x="451.5" y="378.6045">Asset</text><text fill="#000000" font-family="sans-serif" font-size="13" lengthAdjust="spacing" textLength="104" x="422.5" y="394.9561">Requests/Delivery</text></g><!--SRC=[RLF1Yjim4BthAmONMeSIBxljAPI596v3QMXXpRQ7fWV5cjWYikHAyfhyVKUsudMWlaGZpRnvxyt4IwyGYelpsC16cV8CkUILvGsalVGrVE-Q8reKKA1pqcZuXXVueao_O8oNtbXuTcWPAqtJ6etQGx9LClokspO1xc0CsJjO2m6DiGWQUoKrEZZYASHS2-0dZnQI0kqBsWIy0QbBYzmXr2Yhsiyx7FH1ZvdXD7GPGoQuvyTGbEJnDBpc6rOgqmb8TiPKf7WR8W8X0RmQStRROjvZnni4UI8duZCT6B2W5fR2z7hv6AN1Ql00bAcaPYHqkLo- -XQy2ZV106lfVB-wrX52f7sziB_VR5I7VwONmhxFu0d_TkZym07MPKcZWFIhbbvojM0JyiFgMZLnOzSBzOeyiNu8oBwpUWH-Vjh3s_cSsLJTjND6zErGe-KUuQ13E2-wgSatOtum6gUqiIX7pwKY9JHfbOLQqXB9PIBopHv7SYluaC7US35E8aBqTmFhzFsmbbAV344CxzJ-Frv-pE2pexrGqjNm2uy5BJnwY6YfGotSNCo2l1s-D4AyS2LfnsXtpzIGLrngcWkf59sLkW9VImUbqHfBJnYBgnkVRktu6M5Yuvi_Lxetvjor92IkqWzV4q8rEAvcu6vOgwa1mTCA4_xQET8KaEFUkBiSbQIi2_i7]--></g></svg>