<?xml version="1.0" encoding="us-ascii" standalone="no"?><svg xmlns="http://www.w3.org/2000/svg" xmlns:xlink="http://www.w3.org/1999/xlink" contentStyleType="text/css" height="729px" preserveAspectRatio="none" style="width:756px;height:729px;background:#FFFFFF;" version="1.1" viewBox="0 0 756 729" width="756px" zoomAndPan="magnify"><defs/><g><rect fill="none" height="426.4063" style="stroke:#000000;stroke-width:1.5;" width="679" x="70" y="203.6641"/><rect fill="none" height="48.7031" style="stroke:#000000;stroke-width:1.5;" width="443.5" x="295.5" y="574.3672"/><line style="stroke:#181818;stroke-width:0.5;stroke-dasharray:5.0,5.0;" x1="22" x2="22" y1="82.6094" y2="647.0703"/><line style="stroke:#181818;stroke-width:0.5;stroke-dasharray:5.0,5.0;" x1="119" x2="119" y1="82.6094" y2="647.0703"/><line style="stroke:#181818;stroke-width:0.5;stroke-dasharray:5.0,5.0;" x1="333.5" x2="333.5" y1="82.6094" y2="647.0703"/><line style="stroke:#181818;stroke-width:0.5;stroke-dasharray:5.0,5.0;" x1="479" x2="479" y1="82.6094" y2="647.0703"/><line style="stroke:#181818;stroke-width:0.5;stroke-dasharray:5.0,5.0;" x1="573" x2="573" y1="82.6094" y2="647.0703"/><line style="stroke:#181818;stroke-width:0.5;stroke-dasharray:5.0,5.0;" x1="681" x2="681" y1="82.6094" y2="647.0703"/><text fill="#000000" font-family="sans-serif" font-size="14" lengthAdjust="spacing" textLength="29" x="5" y="79.5332">User</text><ellipse cx="22.5" cy="13.5" fill="#E2E2F0" rx="8" ry="8" style="stroke:#181818;stroke-width:0.5;"/><path d="M22.5,21.5 L22.5,48.5 M9.5,29.5 L35.5,29.5 M22.5,48.5 L9.5,63.5 M22.5,48.5 L35.5,63.5 " fill="none" style="stroke:#181818;stroke-width:0.5;"/><text fill="#000000" font-family="sans-serif" font-size="14" lengthAdjust="spacing" textLength="29" x="5" y="660.6035">User</text><ellipse cx="22.5" cy="672.1797" fill="#E2E2F0" rx="8" ry="8" style="stroke:#181818;stroke-width:0.5;"/><path d="M22.5,680.1797 L22.5,707.1797 M9.5,688.1797 L35.5,688.1797 M22.5,707.1797 L9.5,722.1797 M22.5,707.1797 L35.5,722.1797 " fill="none" style="stroke:#181818;stroke-width:0.5;"/><rect fill="#E2E2F0" height="31.6094" rx="2.5" ry="2.5" style="stroke:#181818;stroke-width:0.5;" width="79" x="80" y="50"/><text fill="#000000" font-family="sans-serif" font-size="14" lengthAdjust="spacing" textLength="65" x="87" y="71.5332">Client App</text><rect fill="#E2E2F0" height="31.6094" rx="2.5" ry="2.5" style="stroke:#181818;stroke-width:0.5;" width="79" x="80" y="646.0703"/><text fill="#000000" font-family="sans-serif" font-size="14" lengthAdjust="spacing" textLength="65" x="87" y="667.6035">Client App</text><rect fill="#E2E2F0" height="31.6094" rx="2.5" ry="2.5" style="stroke:#181818;stroke-width:0.5;" width="56" x="305.5" y="50"/><text fill="#000000" font-family="sans-serif" font-size="14" lengthAdjust="spacing" textLength="42" x="312.5" y="71.5332">Server</text><rect fill="#E2E2F0" height="31.6094" rx="2.5" ry="2.5" style="stroke:#181818;stroke-width:0.5;" width="56" x="305.5" y="646.0703"/><text fill="#000000" font-family="sans-serif" font-size="14" lengthAdjust="spacing" textLength="42" x="312.5" y="667.6035">Server</text><text fill="#000000" font-family="sans-serif" font-size="14" lengthAdjust="spacing" textLength="61" x="446" y="79.5332">Database</text><path d="M461.5,29 C461.5,19 479.5,19 479.5,19 C479.5,19 497.5,19 497.5,29 L497.5,55 C497.5,65 479.5,65 479.5,65 C479.5,65 461.5,65 461.5,55 L461.5,29 " fill="#E2E2F0" style="stroke:#181818;stroke-width:1.5;"/><path d="M461.5,29 C461.5,39 479.5,39 479.5,39 C479.5,39 497.5,39 497.5,29 " fill="none" style="stroke:#181818;stroke-width:1.5;"/><text fill="#000000" font-family="sans-serif" font-size="14" lengthAdjust="spacing" textLength="61" x="446" y="660.6035">Database</text><path d="M461.5,673.6797 C461.5,663.6797 479.5,663.6797 479.5,663.6797 C479.5,663.6797 497.5,663.6797 497.5,673.6797 L497.5,699.6797 C497.5,709.6797 479.5,709.6797 479.5,709.6797 C479.5,709.6797 461.5,709.6797 461.5,699.6797 L461.5,673.6797 " fill="#E2E2F0" style="stroke:#181818;stroke-width:1.5;"/><path d="M461.5,673.6797 C461.5,683.6797 479.5,683.6797 479.5,683.6797 C479.5,683.6797 497.5,683.6797 497.5,673.6797 " fill="none" style="stroke:#181818;stroke-width:1.5;"/><rect fill="#E2E2F0" height="49.2188" rx="2.5" ry="2.5" style="stroke:#181818;stroke-width:0.5;" width="101" x="523" y="32.3906"/><text fill="#000000" font-family="sans-serif" font-size="14" lengthAdjust="spacing" textLength="87" x="530" y="53.9238">Google Cloud</text><text fill="#000000" font-family="sans-serif" font-size="14" lengthAdjust="spacing" textLength="50" x="548.5" y="71.5332">Storage</text><rect fill="#E2E2F0" height="49.2188" rx="2.5" ry="2.5" style="stroke:#181818;stroke-width:0.5;" width="101" x="523" y="646.0703"/><text fill="#000000" font-family="sans-serif" font-size="14" lengthAdjust="spacing" textLength="87" x="530" y="667.6035">Google Cloud</text><text fill="#000000" font-family="sans-serif" font-size="14" lengthAdjust="spacing" textLength="50" x="548.5" y="685.2129">Storage</text><rect fill="#E2E2F0" height="31.6094" rx="2.5" ry="2.5" style="stroke:#181818;stroke-width:0.5;" width="95" x="634" y="50"/><text fill="#000000" font-family="sans-serif" font-size="14" lengthAdjust="spacing" textLength="81" x="641" y="71.5332">Game iframe</text><rect fill="#E2E2F0" height="31.6094" rx="2.5" ry="2.5" style="stroke:#181818;stroke-width:0.5;" width="95" x="634" y="646.0703"/><text fill="#000000" font-family="sans-serif" font-size="14" lengthAdjust="spacing" textLength="81" x="641" y="667.6035">Game iframe</text><polygon fill="#181818" points="107.5,110.9609,117.5,114.9609,107.5,118.9609,111.5,114.9609" style="stroke:#181818;stroke-width:1.0;"/><line style="stroke:#181818;stroke-width:1.0;" x1="22.5" x2="113.5" y1="114.9609" y2="114.9609"/><text fill="#000000" font-family="sans-serif" font-size="13" lengthAdjust="spacing" textLength="73" x="29.5" y="110.1045">Select game</text><polygon fill="#181818" points="321.5,141.3125,331.5,145.3125,321.5,149.3125,325.5,145.3125" style="stroke:#181818;stroke-width:1.0;"/><line style="stroke:#181818;stroke-width:1.0;" x1="119.5" x2="327.5" y1="145.3125" y2="145.3125"/><text fill="#000000" font-family="sans-serif" font-size="13" lengthAdjust="spacing" textLength="130" x="126.5" y="140.4561">Request game access</text><line style="stroke:#181818;stroke-width:1.0;" x1="333.5" x2="375.5" y1="175.6641" y2="175.6641"/><line style="stroke:#181818;stroke-width:1.0;" x1="375.5" x2="375.5" y1="175.6641" y2="188.6641"/><line style="stroke:#181818;stroke-width:1.0;" x1="334.5" x2="375.5" y1="188.6641" y2="188.6641"/><polygon fill="#181818" points="344.5,184.6641,334.5,188.6641,344.5,192.6641,340.5,188.6641" style="stroke:#181818;stroke-width:1.0;"/><text fill="#000000" font-family="sans-serif" font-size="13" lengthAdjust="spacing" textLength="105" x="340.5" y="170.8076">Validate user auth</text><path d="M70,203.6641 L131,203.6641 L131,212.0156 L121,222.0156 L70,222.0156 L70,203.6641 " fill="#EEEEEE" style="stroke:#000000;stroke-width:1.5;"/><rect fill="none" height="426.4063" style="stroke:#000000;stroke-width:1.5;" width="679" x="70" y="203.6641"/><text fill="#000000" font-family="sans-serif" font-size="13" font-weight="bold" lengthAdjust="spacing" textLength="16" x="85" y="218.1592">alt</text><text fill="#000000" font-family="sans-serif" font-size="11" font-weight="bold" lengthAdjust="spacing" textLength="133" x="146" y="217.083">[User not authenticated]</text><polygon fill="#181818" points="130.5,240.3672,120.5,244.3672,130.5,248.3672,126.5,244.3672" style="stroke:#181818;stroke-width:1.0;"/><line style="stroke:#181818;stroke-width:1.0;stroke-dasharray:2.0,2.0;" x1="124.5" x2="332.5" y1="244.3672" y2="244.3672"/><text fill="#000000" font-family="sans-serif" font-size="13" lengthAdjust="spacing" textLength="97" x="136.5" y="239.5107">Return auth error</text><line style="stroke:#000000;stroke-width:1.0;stroke-dasharray:2.0,2.0;" x1="70" x2="749" y1="253.3672" y2="253.3672"/><text fill="#000000" font-family="sans-serif" font-size="11" font-weight="bold" lengthAdjust="spacing" textLength="112" x="75" y="264.7861">[User authenticated]</text><polygon fill="#181818" points="561.5,286.5547,571.5,290.5547,561.5,294.5547,565.5,290.5547" style="stroke:#181818;stroke-width:1.0;"/><line style="stroke:#181818;stroke-width:1.0;" x1="333.5" x2="567.5" y1="290.5547" y2="290.5547"/><text fill="#000000" font-family="sans-serif" font-size="13" lengthAdjust="spacing" textLength="127" x="340.5" y="285.6982">Request game assets</text><polygon fill="#181818" points="344.5,316.9063,334.5,320.9063,344.5,324.9063,340.5,320.9063" style="stroke:#181818;stroke-width:1.0;"/><line style="stroke:#181818;stroke-width:1.0;stroke-dasharray:2.0,2.0;" x1="338.5" x2="572.5" y1="320.9063" y2="320.9063"/><text fill="#000000" font-family="sans-serif" font-size="13" lengthAdjust="spacing" textLength="117" x="350.5" y="316.0498">Return game assets</text><line style="stroke:#181818;stroke-width:1.0;" x1="333.5" x2="375.5" y1="351.2578" y2="351.2578"/><line style="stroke:#181818;stroke-width:1.0;" x1="375.5" x2="375.5" y1="351.2578" y2="364.2578"/><line style="stroke:#181818;stroke-width:1.0;" x1="334.5" x2="375.5" y1="364.2578" y2="364.2578"/><polygon fill="#181818" points="344.5,360.2578,334.5,364.2578,344.5,368.2578,340.5,364.2578" style="stroke:#181818;stroke-width:1.0;"/><text fill="#000000" font-family="sans-serif" font-size="13" lengthAdjust="spacing" textLength="127" x="340.5" y="346.4014">Generate session key</text><polygon fill="#181818" points="467.5,390.6094,477.5,394.6094,467.5,398.6094,471.5,394.6094" style="stroke:#181818;stroke-width:1.0;"/><line style="stroke:#181818;stroke-width:1.0;" x1="333.5" x2="473.5" y1="394.6094" y2="394.6094"/><text fill="#000000" font-family="sans-serif" font-size="13" lengthAdjust="spacing" textLength="122" x="340.5" y="389.7529">Store session details</text><polygon fill="#181818" points="130.5,420.9609,120.5,424.9609,130.5,428.9609,126.5,424.9609" style="stroke:#181818;stroke-width:1.0;"/><line style="stroke:#181818;stroke-width:1.0;stroke-dasharray:2.0,2.0;" x1="124.5" x2="332.5" y1="424.9609" y2="424.9609"/><text fill="#000000" font-family="sans-serif" font-size="13" lengthAdjust="spacing" textLength="190" x="136.5" y="420.1045">Return game URL &amp; session key</text><line style="stroke:#181818;stroke-width:1.0;" x1="119.5" x2="161.5" y1="455.3125" y2="455.3125"/><line style="stroke:#181818;stroke-width:1.0;" x1="161.5" x2="161.5" y1="455.3125" y2="468.3125"/><line style="stroke:#181818;stroke-width:1.0;" x1="120.5" x2="161.5" y1="468.3125" y2="468.3125"/><polygon fill="#181818" points="130.5,464.3125,120.5,468.3125,130.5,472.3125,126.5,468.3125" style="stroke:#181818;stroke-width:1.0;"/><text fill="#000000" font-family="sans-serif" font-size="13" lengthAdjust="spacing" textLength="117" x="126.5" y="450.4561">Load game in iframe</text><polygon fill="#181818" points="344.5,494.6641,334.5,498.6641,344.5,502.6641,340.5,498.6641" style="stroke:#181818;stroke-width:1.0;"/><line style="stroke:#181818;stroke-width:1.0;" x1="338.5" x2="680.5" y1="498.6641" y2="498.6641"/><text fill="#000000" font-family="sans-serif" font-size="13" lengthAdjust="spacing" textLength="193" x="350.5" y="493.8076">Establish WebSocket connection</text><polygon fill="#181818" points="467.5,525.0156,477.5,529.0156,467.5,533.0156,471.5,529.0156" style="stroke:#181818;stroke-width:1.0;"/><line style="stroke:#181818;stroke-width:1.0;" x1="333.5" x2="473.5" y1="529.0156" y2="529.0156"/><text fill="#000000" font-family="sans-serif" font-size="13" lengthAdjust="spacing" textLength="121" x="340.5" y="524.1592">Validate session key</text><polygon fill="#181818" points="669.5,555.3672,679.5,559.3672,669.5,563.3672,673.5,559.3672" style="stroke:#181818;stroke-width:1.0;"/><line style="stroke:#181818;stroke-width:1.0;stroke-dasharray:2.0,2.0;" x1="333.5" x2="675.5" y1="559.3672" y2="559.3672"/><text fill="#000000" font-family="sans-serif" font-size="13" lengthAdjust="spacing" textLength="183" x="340.5" y="554.5107">Confirm WebSocket connection</text><path d="M295.5,574.3672 L368.5,574.3672 L368.5,582.7188 L358.5,592.7188 L295.5,592.7188 L295.5,574.3672 " fill="#EEEEEE" style="stroke:#000000;stroke-width:1.5;"/><rect fill="none" height="48.7031" style="stroke:#000000;stroke-width:1.5;" width="443.5" x="295.5" y="574.3672"/><text fill="#000000" font-family="sans-serif" font-size="13" font-weight="bold" lengthAdjust="spacing" textLength="28" x="310.5" y="588.8623">loop</text><text fill="#000000" font-family="sans-serif" font-size="11" font-weight="bold" lengthAdjust="spacing" textLength="88" x="383.5" y="587.7861">[Game Session]</text><polygon fill="#181818" points="344.5,611.0703,334.5,615.0703,344.5,619.0703,340.5,615.0703" style="stroke:#181818;stroke-width:1.0;"/><polygon fill="#181818" points="669.5,611.0703,679.5,615.0703,669.5,619.0703,673.5,615.0703" style="stroke:#181818;stroke-width:1.0;"/><line style="stroke:#181818;stroke-width:1.0;" x1="338.5" x2="675.5" y1="615.0703" y2="615.0703"/><text fill="#000000" font-family="sans-serif" font-size="13" lengthAdjust="spacing" textLength="238" x="350.5" y="610.2139">Real-time communication via WebSocket</text><!--SRC=[XLB1Ri8m3BtdAomEk_43Q48QC77PYOhjiej93KIaSPUaIFlxEGbGsZ6jKfNKVdv-poxgo1wsWRngqKUZJOikmcHf3SdvqhOJm03bSmYfo9_9vtIvgXeZxZ0GJ5QNMywk5iF2DVF1ad1oLt-wIWJWeI3Nose4nOR0xBqS1I0NfP9ScCulgcRItfAES4Z9Yt395b4psD1NHw6a0RMc45J9tQFUqHhHJz0bSkpYKIcqCOy67CSS4cQZ1LGhaETASgTaGx7pBcE1l6UloCeyjbVEnmJpP7miD0IA8SCacPlqXdAJCUotfpKvyibJ4C-67PpeUmHTBMHyie4UKrD4OyC_3dFpxUODdWRakQfVmRNeZR4k9SPTrbcSfT2TuDSWluqruGWVjAjOdoY2PkTakzBXWVJRrlvoc6OhJMQmPBStldbCd4iiSriKLOKiHsyodmSRG3kDHgAQcwPpQQUf-zbWto2NawjLUdy0]--></g></svg>