<svg width="271" height="195" viewBox="0 0 271 195" fill="none" xmlns="http://www.w3.org/2000/svg">
<path d="M261.883 161.622L147.837 189.551L147.618 151.595L262.861 129.285" fill="#0D8244"/>
<path d="M262.861 129.285L147.618 151.595L137.15 139.256L85.9902 112.722L197.699 98.5696L262.034 126.245L262.861 129.285Z" fill="#149852"/>
<path d="M263.522 162.516C268.404 163.412 268.16 160.796 268.16 160.796L269 123.247C269.005 122.963 268.927 122.684 268.774 122.445C268.621 122.206 268.401 122.017 268.141 121.903L202.417 93.0944C202.261 93.0261 202.124 92.9214 202.018 92.7891C201.911 92.6568 201.837 92.5008 201.803 92.3342L183.661 5.35403C183.661 5.35403 183.395 3.90687 179.867 4.39971" stroke="#72C06A" stroke-width="3.45603" stroke-miterlimit="10"/>
<path d="M257.422 162.737L264.133 164.152C264.439 164.216 264.754 164.212 265.058 164.14C265.361 164.069 265.646 163.931 265.89 163.738C266.135 163.544 266.334 163.299 266.473 163.021C266.613 162.742 266.689 162.435 266.697 162.123L267.674 124.115C267.684 123.734 267.579 123.359 267.375 123.037C267.17 122.715 266.874 122.462 266.524 122.31L201.708 93.9892C201.395 93.8518 201.118 93.6412 200.903 93.3751C200.687 93.1091 200.538 92.7952 200.469 92.4599L181.835 2.67798L178.364 2.97667L197.7 98.5696L260.724 126.166C261.203 126.376 261.61 126.723 261.894 127.164C262.177 127.604 262.325 128.118 262.319 128.642L261.887 161.622L257.422 162.737Z" fill="#0D4424"/>
<path d="M197.637 98.5188L84.1836 112.951L75.4872 106.588L56.943 1.32935L178.385 2.96766L197.637 98.5188Z" fill="black"/>
<path d="M57.3072 1.53223L74.0757 1.73832L196.165 90.9572L197.699 98.5693L188.565 99.7312L57.7971 4.16966L57.3072 1.53223Z" fill="white"/>
<path d="M139.548 192.443C146.82 194.506 146.24 190.294 146.24 190.294L146.325 147.461C146.327 146.698 146.119 145.949 145.724 145.296C145.329 144.644 144.762 144.112 144.085 143.76L75.4041 107.932C75.1335 107.79 74.8988 107.588 74.7177 107.341C74.5366 107.095 74.4139 106.811 74.3587 106.51L56.4373 4.73142C56.4373 4.73142 56.5209 1.53245 51.9226 2.86162" stroke="#72C06A" stroke-width="3.88826" stroke-miterlimit="10"/>
<path d="M4.89384 165.546C3.6417 165.277 2.51955 164.587 1.71456 163.591C0.909568 162.595 0.47037 161.353 0.470211 160.073V134.557C0.470177 133.72 0.658013 132.893 1.01986 132.138C1.38172 131.382 1.90837 130.718 2.56104 130.193L18.4992 117.396C19.1649 116.861 19.6994 116.181 20.0618 115.408C20.4242 114.635 20.6049 113.789 20.59 112.935L18.7128 4.87917C18.7052 4.4347 18.786 3.99316 18.9502 3.58009C19.1145 3.16702 19.3591 2.79063 19.6698 2.4727C19.9805 2.15478 20.3511 1.90163 20.7603 1.72792C21.1695 1.5542 21.6091 1.46336 22.0536 1.46066L52.302 1.28593C52.8878 1.28265 53.4561 1.48622 53.9066 1.86077C54.3571 2.23532 54.661 2.75684 54.7647 3.33345L73.2014 105.541C73.3528 106.381 73.6944 107.176 74.2002 107.864C74.7061 108.552 75.3626 109.115 76.1196 109.51L141.579 143.69C142.486 144.163 143.246 144.876 143.776 145.751C144.307 146.626 144.587 147.629 144.587 148.652V190.645C144.587 191.221 144.458 191.789 144.21 192.308C143.963 192.827 143.602 193.285 143.154 193.646C142.707 194.008 142.184 194.265 141.625 194.399C141.065 194.533 140.483 194.54 139.92 194.419L4.89384 165.546Z" fill="#0E1311"/>
<path d="M192.183 118.193L192.121 119.608C192.121 119.608 192.003 120.991 187.202 120.814C182.401 120.638 182.405 119.189 182.405 119.189L182.466 117.774L192.183 118.193Z" fill="#0F3B21"/>
<path d="M187.265 119.336C184.582 119.22 182.434 118.492 182.468 117.71C182.501 116.928 184.704 116.388 187.387 116.504C190.07 116.62 192.218 117.347 192.184 118.129C192.15 118.911 189.948 119.451 187.265 119.336Z" fill="#2CB35E"/>
<path d="M176.658 115.722L176.563 117.136C176.563 117.136 176.413 118.515 171.616 118.222C166.819 117.929 166.86 116.479 166.86 116.479L166.955 115.065L176.658 115.722Z" fill="#0F3B21"/>
<path d="M171.723 116.761C169.043 116.58 166.914 115.801 166.966 115.02C167.019 114.239 169.233 113.752 171.913 113.933C174.592 114.113 176.722 114.892 176.669 115.673C176.617 116.454 174.402 116.941 171.723 116.761Z" fill="#2CB35E"/>
<path d="M162.089 117.759L161.956 119.17C161.956 119.17 161.768 120.544 156.981 120.126C152.195 119.708 152.274 118.259 152.274 118.259L152.405 116.849L162.089 117.759Z" fill="#0F3B21"/>
<path d="M157.121 118.656C154.447 118.404 152.339 117.569 152.412 116.789C152.485 116.01 154.712 115.582 157.386 115.833C160.06 116.085 162.168 116.92 162.095 117.7C162.022 118.479 159.795 118.907 157.121 118.656Z" fill="#2CB35E"/>
<path d="M192.559 123.87L192.396 125.277C192.396 125.277 192.178 126.646 187.402 126.125C182.626 125.604 182.735 124.16 182.735 124.16L182.897 122.751L192.559 123.87Z" fill="#0F3B21"/>
<path d="M187.568 124.652C184.901 124.343 182.811 123.462 182.901 122.685C182.991 121.907 185.226 121.527 187.894 121.836C190.562 122.145 192.652 123.025 192.562 123.803C192.472 124.58 190.236 124.96 187.568 124.652Z" fill="#2CB35E"/>
<path d="M178.809 126.21L178.637 127.704C178.637 127.704 178.408 129.154 173.398 128.6C168.387 128.046 168.502 126.524 168.502 126.524L168.676 125.031L178.809 126.21Z" fill="#0F3B21"/>
<path d="M173.573 127.041C170.775 126.717 168.584 125.788 168.679 124.966C168.775 124.143 171.12 123.738 173.918 124.062C176.716 124.386 178.907 125.315 178.812 126.138C178.717 126.961 176.371 127.365 173.573 127.041Z" fill="#2CB35E"/>
<path d="M162.822 123.568L162.651 125.062C162.651 125.062 162.422 126.512 157.411 125.958C152.401 125.404 152.517 123.882 152.517 123.882L152.689 122.388L162.822 123.568Z" fill="#0F3B21"/>
<path d="M157.588 124.399C154.79 124.075 152.599 123.146 152.694 122.323C152.789 121.5 155.135 121.096 157.933 121.42C160.731 121.743 162.922 122.673 162.827 123.495C162.732 124.318 160.386 124.722 157.588 124.399Z" fill="#2CB35E"/>
</svg>
