<svg width="181" height="396" viewBox="0 0 181 396" fill="none" xmlns="http://www.w3.org/2000/svg">
<path d="M16.7061 229.047L82.9004 230.347L84.4087 255.105L18.2055 251.177L16.7061 229.047Z" fill="#0D8244"/>
<path d="M76.5303 227.191L85.3237 221.787L95.984 221.979L86.4886 227.654L76.5303 227.191Z" fill="#D8EDDE"/>
<path d="M87.4021 261.643L85.1455 230.14L117.034 212.055L143.425 1.16577L180.543 6.59149V382.045L86.6644 395.894L86.3791 381.545L122.149 359.478V275.447L118.564 262.79L90.6803 264.506C89.8666 264.558 89.0653 264.287 88.4512 263.75C87.8371 263.214 87.46 262.457 87.4021 261.643Z" fill="#0E1311"/>
<path d="M31.0791 255.105L36.4809 271.452L119.603 276.022L120.146 271.833L117.425 262.861L91.0472 263.648L85.3243 258.603L82.3852 256.512L31.0791 255.105Z" fill="#0D2416"/>
<path d="M16.6572 229.047L82.8993 230.347L111.798 213.388L49.7357 211.961L16.705 229.047" fill="#149852"/>
<path d="M30.4834 221.979L57.0654 18.2522L140.164 7.78162L114.511 212.435L110.894 213.626L48.9261 212.435L32.8401 221.051L30.4834 221.979Z" fill="black"/>
<path d="M140.164 7.78162L137.71 8.09076L34.2678 192.979L30.4834 221.979L30.7537 221.873L137.17 31.6709L140.164 7.78162Z" fill="white"/>
<path d="M86.0387 256.512L1 252.13" stroke="#72C06A" stroke-width="4.47861" stroke-miterlimit="10"/>
<path d="M36.4825 271.452L119.605 276.022L120.147 358.93L117.172 360.847L35.458 349.983L36.4825 271.452Z" fill="#0F3B21"/>
<path d="M1.11719 370.425L36.8361 349.697L119.007 360.05L84.0979 383.109L1.11719 370.425Z" fill="#17753C"/>
<path d="M142.402 1L115.877 210.743C115.822 211.18 115.666 211.598 115.421 211.964C115.177 212.33 114.851 212.634 114.468 212.852L84.9428 229.673C84.7459 229.784 84.5846 229.949 84.4775 230.148C84.3704 230.347 84.322 230.572 84.3379 230.798L86.1883 258.791C86.2383 259.551 86.4384 260.295 86.7772 260.977C87.116 261.66 87.5866 262.269 88.1621 262.769C88.7375 263.269 89.4063 263.65 90.1297 263.89C90.8532 264.13 91.6171 264.224 92.3772 264.167L115.877 262.406C116.564 262.356 117.246 262.557 117.795 262.973C118.345 263.388 118.725 263.99 118.864 264.665L120.971 274.98C121.01 275.167 121.029 275.357 121.029 275.547V356.814C121.03 357.289 120.911 357.757 120.684 358.174C120.457 358.592 120.129 358.945 119.73 359.203L87.8087 379.778C86.9909 380.305 86.3184 381.029 85.8526 381.883C85.3869 382.737 85.1429 383.694 85.1429 384.666V395.893" stroke="#72C06A" stroke-width="3.73364" stroke-miterlimit="10"/>
<path d="M1.11765 370.425L1.09375 382.251L83.8848 395.103L83.598 382.764" fill="#2CB35E"/>
<path d="M69.0479 219.144V220.239C69.0479 220.239 69.0822 221.31 72.0452 221.334C75.0082 221.357 75.0441 220.239 75.0441 220.239V219.144H69.0479Z" fill="#0F3B21"/>
<path d="M72.0448 220.194C73.701 220.194 75.0436 219.704 75.0436 219.099C75.0436 218.495 73.701 218.005 72.0448 218.005C70.3885 218.005 69.0459 218.495 69.0459 219.099C69.0459 219.704 70.3885 220.194 72.0448 220.194Z" fill="#2CB35E"/>
<path d="M70.3672 221.832V222.927C70.3672 222.927 70.403 223.998 73.366 224.022C76.329 224.046 76.3634 222.927 76.3634 222.927V221.832H70.3672Z" fill="#0F3B21"/>
<path d="M73.366 222.882C75.0223 222.882 76.3649 222.392 76.3649 221.788C76.3649 221.183 75.0223 220.693 73.366 220.693C71.7098 220.693 70.3672 221.183 70.3672 221.788C70.3672 222.392 71.7098 222.882 73.366 222.882Z" fill="#2CB35E"/>
</svg>
